<?xml version="1.0" encoding="utf-8"?>
<!-- Generator: Adobe Illustrator 25.2.0, SVG Export Plug-In . SVG Version: 6.00 Build 0)  -->
<svg version="1.1" id="Layer_1" xmlns="http://www.w3.org/2000/svg" xmlns:xlink="http://www.w3.org/1999/xlink" x="0px" y="0px"
	 viewBox="0 0 641.9 722.2" style="enable-background:new 0 0 641.9 722.2;" xml:space="preserve">
<g>
	<g>
		<path d="M52.9,238.2c2.2,0,4.4,0,6.6,0c0.3,0.1,0.6,0.1,0.8,0.2c2.2,0.3,4.4,0.4,6.6,0.9c21.9,4.9,36.3,18.1,43.2,39.5
			c0.2,0.7,0.1,1.1-0.3,1.7c-2.3,3.1-5,5.6-8.3,7.5c-1.3,0.8-1.7,1.9-1,2.9c0.6,1.1,1.9,1.4,3.1,0.5c2.4-1.8,4.7-3.8,7.1-5.7
			c0.2-0.2,0.4-0.4,0.7-0.6c0.1,0,0.2,0.1,0.3,0.1c-0.1,0.8,0,1.6-0.4,2.2c-0.9,1.5-1.9,3.1-3.1,4.3c-4,4-9,6.4-14.2,8.4
			c-9.2,3.4-18.8,5.1-28.5,5.8c-13.9,1-27.7-0.1-41.1-3.8c-6-1.7-11.8-3.9-17-7.6c-2.6-1.8-4.8-4-6.3-6.9c-0.4-0.8-0.5-1.6,0-2.7
			c0.3,0.4,0.4,0.7,0.7,0.9c2.4,1.9,4.8,3.9,7.3,5.7c1,0.8,2.3,0.4,2.8-0.6c0.6-1,0.3-2.1-0.8-2.8c-0.3-0.2-0.6-0.3-0.8-0.5
			c-3-1.8-5.4-4.2-7.5-6.9c-0.6-0.7-0.7-1.4-0.4-2.3c7.1-21.6,21.8-34.8,44.1-39.4C48.5,238.6,50.7,238.5,52.9,238.2z M47.8,242.9
			c-0.3,0-0.8,0.1-1.1,0.2c-13.6,2.7-24.5,9.5-32.7,20.7c-1.1,1.4-2,3-2.9,4.5c-0.7,1.2-0.4,2.4,0.6,3c1,0.6,2.1,0.2,2.9-1
			c0.1-0.2,0.2-0.4,0.3-0.6c6.5-10.7,15.7-17.9,27.7-21.5c1.8-0.5,3.7-0.9,5.5-1.3c1.2-0.3,1.9-1.1,1.7-2.3
			C49.7,243.6,48.9,242.9,47.8,242.9z M64.3,302.1C64.3,302.1,64.3,302.1,64.3,302.1c0.2,0,0.4,0,0.5-0.1c3.1-0.3,6.2-0.6,9.4-1
			c1.4-0.2,2.1-1,2-2.3c-0.1-1.1-1-1.9-2.2-1.7c-4,0.4-7.9,0.7-11.9,1.1c-1.2,0.1-1.9,0.9-1.9,2c0,1.1,0.9,2,2.1,2
			C62.9,302.2,63.6,302.1,64.3,302.1z M48,302.2C48,302.1,48,302.1,48,302.2c0.6-0.1,1.1,0,1.7,0c1.5,0.1,2.4-0.7,2.5-1.9
			c0.1-1.2-0.8-2-2.2-2.1c-3.7-0.4-7.4-0.7-11.1-1.1c-1.5-0.1-2.5,0.4-2.6,1.6c-0.2,1.3,0.6,2.2,2.1,2.3
			C41.5,301.5,44.8,301.8,48,302.2z M30.1,296.8c-0.1-0.9-0.6-1.4-1.6-1.8c-3.2-1-6.4-2.1-9.5-3.2c-1.2-0.4-2.2,0-2.6,1.1
			c-0.5,1.1,0,2.1,1.2,2.7c0.6,0.3,1.3,0.6,1.9,0.8c2.6,0.9,5.3,1.7,7.9,2.5C28.9,299.3,30.1,298.4,30.1,296.8z M94.1,291.7
			c-0.3,0.1-0.7,0.2-1.1,0.3c-3,1-5.9,2-8.9,3c-1.4,0.5-2.1,1.3-1.8,2.5c0.3,1.2,1.4,1.8,2.9,1.4c1.7-0.5,3.4-1,5.1-1.5
			c1.6-0.5,3.2-1.1,4.7-1.8c1-0.4,1.4-1.4,1.1-2.3C95.8,292.2,95.1,291.8,94.1,291.7z M56.2,242.2c-1.1,0-2,0.9-2,2
			c0,1.1,0.9,1.9,1.9,2c1.1,0,2-0.8,2-2C58.2,243.1,57.3,242.2,56.2,242.2z"/>
		<path d="M112.3,298.5c-1.7,7.5-7.3,11.5-13.5,14.8c-7,3.8-14.7,5.9-22.5,7.3c-9.2,1.6-18.4,2.1-27.7,1.5c-11.6-0.8-22.9-3-33.4-8
			c-3.6-1.7-7.1-3.8-10-6.7c-4.2-4.1-5.5-7.7-5.1-13.7c0.1,0,0.2,0,0.2,0c4.1,4.4,9.2,7.3,14.7,9.5c7.6,3.1,15.6,4.9,23.7,6
			c8.7,1.1,17.4,1.4,26.1,0.8c12.2-0.8,24.2-2.9,35.4-8.1c4.5-2.1,8.7-4.8,12.1-8.6C112.3,295.1,112.3,296.8,112.3,298.5z"/>
		<path d="M110,310.7c-0.8,2.1-1.6,4.3-2.5,6.4c-0.1,0.3-0.5,0.6-0.8,0.8c-1.8,1-3.5,2.1-5.3,3.1c-1.5,0.8-2,1.8-1.4,3
			c0.5,1.1,1.6,1.3,3.1,0.7c0.1,0,0.2-0.1,0.3-0.1c-7.7,12.8-23.5,24.2-42.2,25.6c-22.2,1.6-39.5-7.4-52.3-25.3
			c0-0.1,0.1-0.2,0.1-0.3c0.2,0.1,0.5,0.2,0.7,0.3c1.2,0.5,2.2,0.1,2.7-0.9c0.5-1,0.1-2.1-0.9-2.7c-1.9-1.1-3.9-2.2-5.8-3.3
			c-0.4-0.3-0.8-0.7-1-1.2c-0.8-2-1.5-4-2.1-6.1c0.7,0.6,1.5,1.3,2.2,1.8c5.9,4.7,12.7,7.6,19.9,9.7c12.7,3.7,25.7,4.7,38.9,4
			c10.4-0.6,20.7-2.4,30.5-6.2c5.8-2.2,11.1-5.1,15.7-9.4C109.8,310.7,109.9,310.7,110,310.7z M48.9,334.3
			C48.9,334.3,48.9,334.3,48.9,334.3c0.4-0.1,0.8-0.1,1.2-0.1c1.2,0,2.1-0.8,2.1-1.9c0-1.1-0.8-2-2-2.1c-3.9-0.4-7.8-0.7-11.7-1.1
			c-1.3-0.1-2.3,0.5-2.4,1.7c-0.2,1.2,0.5,2.1,1.9,2.3C41.7,333.6,45.3,333.9,48.9,334.3z M63.4,334.2
			C63.4,334.3,63.4,334.3,63.4,334.2c3.6-0.3,7.1-0.6,10.7-1.1c1.6-0.2,2.3-1.1,2.1-2.3c-0.2-1.2-1.2-1.8-2.7-1.6
			c-1,0.1-2,0.3-3,0.4c-2.8,0.2-5.5,0.4-8.3,0.7c-1.2,0.1-2,1-1.9,2.1c0.1,1.1,0.9,1.8,2,1.9C62.6,334.2,63,334.2,63.4,334.2z
			 M30.1,329.3c0-1-0.6-1.7-1.8-2c-2-0.5-4-1.1-6-1.6c-1.2-0.4-2.4-0.8-3.6-1.2c-1.1-0.3-2.1,0.2-2.5,1.2c-0.4,1,0,2.1,1,2.5
			c3.5,1.1,7.1,2.2,10.7,3.2C29,331.5,30.1,330.5,30.1,329.3z M96.2,326.3c0-1.4-1.3-2.3-2.7-1.8c-3.2,0.9-6.4,1.9-9.6,2.8
			c-1.2,0.4-1.9,1.4-1.6,2.5c0.3,1.1,1.3,1.7,2.5,1.4c3.4-0.9,6.7-1.9,10.1-3C95.7,327.9,96.1,327.2,96.2,326.3z"/>
	</g>
	<g>
		<path d="M379.6,722.2c-17.4-5-25.6-17.7-30.9-34.2C338,654.6,328,621.2,324,586.2c-2.7-23.2,1.5-45.9,6.8-68.4
			c0.7-3.1,1.5-6.2,2.3-9.7c-31.3,16.4-53.6,40-65.2,72.8c-8.1,23-15.1,46.4-22.8,69.6c-8.4,25-34.6,34.9-56.9,21.7
			c-11.8-6.9-18.5-18.7-14.5-31.5c12.5-40.2,20.9-82,40.9-119.7c10.8-20.4,25.8-36.8,45.1-49.5c15.5-10.2,31.1-20.2,46.1-31.1
			c6.3-4.6,11.1-11.3,16.7-17c3-3.1,2.6-5.7,0.4-9.2c-18.1-30.1-40-57.4-62.7-84.1c-14-16.5-28.6-32.5-41.3-50
			c-24-33-1.5-83.6,39-88.8c5.8-0.8,12.4,0.1,17.9,2.1c5.5,2,10.1,2.3,15.5,0.4c30.7-10.9,61.5-21.6,92.3-32.5
			c9.2-3.2,18.4-5.5,30-0.5c-35.8,20.4-70.2,40.2-104.7,59.9c2.4,6.3,6.1,7.5,12.5,4.8c28.4-11.9,54.3-27.8,77.5-48
			c4.9-4.3,10.4-8.2,16.2-11.1c7.7-3.8,16.2-3.7,23.9,0c5.7,2.8,9.4,2,13-2.8c1.4-1.8,3.4-3.1,5.5-4.9c-4.3-4.6-8-8.7-13.4-14.5
			c2.2-1.3,4.5-2.2,6.1-3.8c47.2-44.2,94.3-88.5,141.5-132.7C606.9-6.6,632.4,0,639,19.9c1,2.9,1.5,5.9,2.2,8.9
			c2,9.3,0.2,16.4-7.6,23.6c-47.9,44.1-95.2,88.9-142.7,133.5c-1,1-2.1,1.9-4.1,3.7c-3.7-4.6-7.3-9.1-11.1-13.8
			c-2.7,2.5-4.1,4-5.8,5.3c-5.3,4.2-7.9,8.3-6,16.1c2.7,11.2-2.8,20.6-11.1,28.1c-22.3,20.4-46.8,37.8-73.9,51.3
			c-5.2,2.6-10.4,5.2-16.2,8.1c9,11.8,18.2,22.7,26.1,34.6c13.1,19.7,26,39.7,37.7,60.3c11.4,19.9,10,40-3.6,58.9
			c-1.2,1.7-2.2,3.6-2.7,5.6c-7,27-13.8,54.1-20.7,81.2c-7.5,29.4-6.6,58.6,2,87.7c5.7,19.1,10.3,38.6,17.3,57.3
			c9.4,25.3,4.5,44.1-25,52.2C389,722.2,384.3,722.2,379.6,722.2z"/>
		<path d="M226.1,76c2.5,2.3,4.6,4.1,7.3,6.5c-5.6,6.5-11,12.8-16.6,19.5c3.5,2.9,6.5,5.7,10,8c1.2,0.8,3.3,0.8,5,0.6
			c1.3-0.2,2.5-1.1,3.8-1.7c15.1-7,15.2-7.1,20.1,8.9c3.5,11.3,5.7,22.8,2.4,34.6c-2.5,8.9-7.8,15.2-16.9,18.2
			c-2.1,0.7-4.2,2.7-5.3,4.7c-12,20.1-34.8,30.7-57,26.2c-23-4.6-40.1-22.9-43.2-46.1c-4.9-36.8,29.2-67.5,65.6-58.8
			c4.7,1.1,7.3,0.3,10.1-3.3C215.9,87.2,221.1,81.8,226.1,76z M233.1,116.9c3.3,7.2,6.1,13.5,9.1,20c3.7-1.1,6.9-2.2,10.9-3.4
			c-2.1-7.8-4.1-15.1-6.2-23C241.6,112.9,237.4,114.9,233.1,116.9z M252.3,139.6c-3.6,2.1-8.6,3.3-9.3,5.7
			c-1.6,5.5-1.2,11.7-1.6,17.8C250.2,158.5,253.5,151.8,252.3,139.6z"/>
		<path d="M116.7,540.5c0,39,0,78,0,117c0,12.2-4.3,18.3-12.8,18.1c-8.2-0.2-12.2-6.1-12.2-18c0-78.2,0-156.4,0-234.6
			c0-1.6-0.1-3.3,0.1-4.9c0.6-7.7,5.6-12.8,12.3-12.9c6.4,0,11.3,4.7,12.3,12.1c0.3,2.3,0.2,4.7,0.2,7
			C116.7,463,116.7,501.7,116.7,540.5z"/>
		<path d="M160.4,673.1c-9.8,4.6-17.9,0.5-19.1-8.8c-0.3-2.1-0.2-4.2-0.2-6.3c0-78.2,0-156.4,0-234.7c0-12,3.9-17.9,12-18.2
			c8.3-0.3,12.8,6,12.8,18.1c0,61.8,0.1,123.6-0.2,185.3c0,5.9-1.7,12-3.6,17.7C156.9,641.7,152.9,657,160.4,673.1z"/>
		<path d="M190.2,536.2c0-5.6,0-10.7,0-15.8c0-32.1,0-64.3,0-96.4c0-2.6-0.1-5.2,0.2-7.7c0.8-6.5,6.2-11.3,12.4-11.1
			c6,0.2,11.2,4.8,11.6,11.1c0.5,6.5,0.3,13.1,0.3,19.7c0,18.3,0.1,36.6-0.1,54.9c0,2.7-0.4,5.7-1.7,8
			C205.7,511.1,198.2,523.1,190.2,536.2z"/>
		<path d="M599.4,229.8c-22.9,63.1-73.1,95.9-133.2,119.4c-1-2.7-1.7-4.7-2.5-7.1c29.7-9.4,56.7-22.8,80.8-41.6
			C568.8,281.5,587.8,258.4,599.4,229.8z"/>
		<path d="M126.3,404.9c-4.9,0-10,0.7-14.7-0.3c-2.7-0.6-6.3-3.5-6.9-6c-1-4.4,2.5-6.7,6.9-6.7c10.1-0.1,20.2-0.4,30.3,0.3
			c2.5,0.2,6.4,3.5,6.9,6c0.9,4.2-2.5,6.7-7,6.7C136.7,404.9,131.5,404.9,126.3,404.9z"/>
		<path d="M179.9,404.9c-5.1,0-10.4,0.7-15.4-0.3c-2.6-0.5-4.6-4-6.8-6.2c2.3-2.2,4.4-6,6.8-6.2c10.3-0.7,20.6-0.7,30.9,0
			c2.4,0.2,4.5,4,6.8,6.2c-2.3,2.1-4.3,5.6-6.9,6.2C190.4,405.6,185.1,404.9,179.9,404.9z"/>
	</g>
</g>
</svg>
