<?xml version="1.0" standalone="no"?>
<!DOCTYPE svg PUBLIC "-//W3C//DTD SVG 20010904//EN"
 "http://www.w3.org/TR/2001/REC-SVG-20010904/DTD/svg10.dtd">
<svg version="1.0" xmlns="http://www.w3.org/2000/svg"
 width="512.000000pt" height="512.000000pt" viewBox="0 0 512.000000 512.000000"
 preserveAspectRatio="xMidYMid meet">

<g transform="translate(0.000000,512.000000) scale(0.100000,-0.100000)"
fill="#000000" stroke="none">
<path d="M1634 5101 c-23 -10 -52 -34 -65 -52 -21 -30 -24 -47 -27 -150 l-4
-115 -42 -12 c-53 -14 -89 -42 -110 -86 -14 -30 -16 -84 -16 -417 l0 -383 -62
61 c-122 119 -246 186 -408 219 -221 44 -466 -30 -641 -194 -122 -114 -194
-232 -235 -383 -27 -97 -25 -262 4 -363 97 -338 402 -576 736 -576 209 1 376
70 534 223 l72 70 0 -609 0 -609 -456 -455 c-257 -257 -462 -469 -470 -487
-19 -45 -17 -97 5 -141 17 -33 306 -325 536 -544 130 -123 196 -127 310 -17
34 32 64 59 67 59 3 0 8 -11 12 -23 9 -38 46 -78 90 -98 32 -15 66 -19 158
-19 157 0 199 18 239 105 17 36 19 69 19 300 l0 260 170 170 170 170 0 -439 0
-439 25 -43 c40 -67 85 -84 232 -84 146 0 192 18 230 90 l23 43 0 691 0 691
170 170 170 170 0 -855 c0 -810 1 -857 19 -895 40 -87 82 -105 239 -105 135 0
183 16 223 71 l24 34 5 1132 5 1133 401 402 c221 222 407 413 413 425 22 44
13 105 -30 193 l-40 84 380 380 c433 433 438 441 396 543 -18 42 -201 236
-255 270 -42 27 -107 30 -156 7 -20 -10 -198 -183 -409 -397 l-375 -380 -79
37 c-104 49 -136 53 -196 27 -26 -12 -49 -21 -51 -21 -2 0 -4 160 -4 356 0
311 -2 360 -17 391 -18 39 -73 79 -120 89 l-31 6 -4 117 c-3 104 -6 120 -27
150 -13 18 -42 42 -65 52 -39 18 -82 19 -841 19 -759 0 -802 -1 -841 -19z
m756 -235 l0 -84 -43 -10 c-26 -7 -55 -25 -77 -47 l-34 -35 -189 0 -188 0 -25
30 c-14 16 -48 38 -75 47 l-49 18 0 82 0 83 340 0 340 0 0 -84z m850 1 l0 -82
-49 -18 c-27 -9 -61 -31 -75 -47 l-25 -30 -188 0 -189 0 -34 35 c-22 22 -51
40 -77 47 l-43 10 0 84 0 84 340 0 340 0 0 -83z m-1530 -1530 l0 -1272 -85
-85 -85 -85 0 1358 0 1357 85 0 85 0 0 -1273z m850 425 l0 -847 -85 -85 -85
-85 0 933 0 932 85 0 85 0 0 -848z m850 425 l0 -422 -85 -85 -85 -85 0 508 0
507 85 0 85 0 0 -423z m-1190 -640 l0 -972 -170 -170 -170 -170 0 1143 0 1142
170 0 170 0 0 -973z m850 425 l0 -547 -170 -170 -170 -170 0 718 0 717 170 0
170 0 0 -548z m1518 1 l-363 -363 -90 90 -90 90 125 127 c69 71 231 235 360
365 l235 238 92 -92 93 -93 -362 -362z m-4093 -283 l-320 -320 -3 49 c-4 67
22 171 65 260 44 93 158 210 250 259 77 41 190 71 268 71 l60 1 -320 -320z
m578 230 c26 -16 47 -31 47 -32 0 -2 -186 -189 -414 -417 l-413 -413 -32 51
c-17 28 -31 57 -31 64 0 18 762 777 780 777 9 0 37 -13 63 -30z m2725 -164
c78 -39 102 -59 222 -183 118 -120 140 -148 175 -221 l39 -82 -390 -393 c-214
-215 -908 -913 -1542 -1550 l-1153 -1157 -276 273 -275 272 1547 1543 c850
848 1551 1542 1556 1542 5 0 49 -20 97 -44z m-2518 -48 l32 -51 -393 -393
-393 -393 -35 19 c-20 11 -45 27 -56 35 -19 15 -2 33 390 425 226 226 413 410
417 410 3 0 21 -23 38 -52z m86 -320 c-15 -160 -73 -286 -180 -393 -124 -123
-283 -186 -446 -176 -12 1 616 641 629 641 2 0 1 -33 -3 -72z m2044 -2208 l0
-1010 -85 0 -85 0 0 927 0 928 82 82 c46 46 84 83 85 83 2 0 3 -454 3 -1010z
m-850 -425 l0 -585 -85 0 -85 0 0 502 0 503 82 82 c46 46 84 83 85 83 2 0 3
-263 3 -585z m-850 -430 l0 -155 -85 0 -85 0 0 77 0 78 77 77 c43 43 81 78 85
78 5 0 8 -70 8 -155z"/>
</g>
</svg>
