<?xml version="1.0" standalone="no"?>
<!DOCTYPE svg PUBLIC "-//W3C//DTD SVG 20010904//EN"
 "http://www.w3.org/TR/2001/REC-SVG-20010904/DTD/svg10.dtd">
<svg version="1.0" xmlns="http://www.w3.org/2000/svg"
 width="512.000000pt" height="512.000000pt" viewBox="0 0 512.000000 512.000000"
 preserveAspectRatio="xMidYMid meet">

<g transform="translate(0.000000,512.000000) scale(0.100000,-0.100000)"
fill="#000000" stroke="none">
<path d="M2425 5114 c-642 -70 -1161 -522 -1304 -1134 -131 -559 72 -1140 521
-1497 l77 -61 -72 -28 c-665 -251 -1222 -806 -1475 -1469 -101 -263 -172 -622
-172 -867 l0 -58 200 0 200 0 0 54 c0 90 20 254 46 384 81 406 287 785 590
1089 275 274 610 468 978 564 163 42 280 58 507 69 264 13 380 33 546 93 414
150 756 505 897 929 96 293 94 638 -6 933 -174 508 -611 883 -1143 981 -81 15
-317 26 -390 18z m304 -409 c637 -104 1044 -744 865 -1361 -103 -356 -382
-635 -737 -738 -384 -111 -806 3 -1079 292 -394 418 -395 1067 -3 1481 93 98
179 162 298 222 214 107 428 141 656 104z"/>
<path d="M4035 2240 l-140 -140 224 -224 224 -224 -254 -5 c-188 -3 -273 -9
-329 -22 -498 -112 -871 -485 -985 -985 -14 -58 -19 -139 -22 -357 l-5 -283
200 0 200 0 4 268 c4 255 6 271 31 355 89 292 301 504 594 594 83 25 101 27
338 30 l250 4 -233 -233 -232 -233 140 -140 140 -140 470 470 470 470 -467
467 c-258 258 -470 468 -473 468 -3 0 -68 -63 -145 -140z"/>
</g>
</svg>
