<svg xmlns="http://www.w3.org/2000/svg" width="98" height="98" viewBox="0 0 98 98">
  <g id="dark_theme" transform="translate(-9.261 -9.261)">
    <path id="Path_1658" data-name="Path 1658" d="M147.783,102.4a32.091,32.091,0,1,0,9.4,22.692A31.882,31.882,0,0,0,147.783,102.4Zm-22.692,44.972a22.282,22.282,0,0,1-5.72-43.817,28.846,28.846,0,0,0,22.664,36A22.229,22.229,0,0,1,125.091,147.371Z" transform="translate(-66.83 -66.83)"/>
    <rect id="Rectangle_160" data-name="Rectangle 160" width="4" height="13" rx="2" transform="translate(56.261 9.261)"/>
    <rect id="Rectangle_161" data-name="Rectangle 161" width="4.088" height="13.286" rx="2.044" transform="translate(31.86 16.622) rotate(-30)"/>
    <rect id="Rectangle_162" data-name="Rectangle 162" width="4.088" height="13.286" rx="2.044" transform="translate(14.578 35.401) rotate(-60)"/>
    <rect id="Rectangle_163" data-name="Rectangle 163" width="13" height="4" rx="2" transform="translate(9.261 56.261)"/>
    <rect id="Rectangle_164" data-name="Rectangle 164" width="13.286" height="4.088" rx="2.044" transform="matrix(0.866, -0.5, 0.5, 0.866, 14.578, 81.121)"/>
    <rect id="Rectangle_165" data-name="Rectangle 165" width="13.286" height="4.088" rx="2.044" transform="matrix(0.5, -0.866, 0.866, 0.5, 31.86, 99.9)"/>
    <rect id="Rectangle_166" data-name="Rectangle 166" width="4" height="13" rx="2" transform="translate(56.261 94.261)"/>
    <rect id="Rectangle_167" data-name="Rectangle 167" width="4.088" height="13.286" rx="2.044" transform="matrix(0.866, -0.5, 0.5, 0.866, 74.478, 90.438)"/>
    <rect id="Rectangle_168" data-name="Rectangle 168" width="4.088" height="13.286" rx="2.044" transform="matrix(0.5, -0.866, 0.866, 0.5, 88.394, 78.019)"/>
    <rect id="Rectangle_169" data-name="Rectangle 169" width="13" height="4" rx="2" transform="translate(94.261 56.261)"/>
    <rect id="Rectangle_170" data-name="Rectangle 170" width="13.286" height="4.088" rx="2.044" transform="translate(88.394 38.503) rotate(-30)"/>
    <rect id="Rectangle_171" data-name="Rectangle 171" width="13.286" height="4.088" rx="2.044" transform="translate(74.478 26.084) rotate(-60)"/>
  </g>
</svg>
